<svg xmlns="http://www.w3.org/2000/svg" viewBox="0 0 347.47 124.00" width="347" height="124">
  <rect x="-1" y="-1" width="349.47" height="126.00" fill="#000000"/>
  <g transform="translate(8.00,8.00)">
    <circle cx="54.00" cy="54.00" r="54.00" fill="#00823D"/><circle cx="54.00" cy="54.00" r="49.14" fill="#FFFFFF"/><g><path d="M 54.00,54.00 L 54.48,54.11 L 54.88,54.22 L 55.27,54.34 L 55.64,54.46 L 56.00,54.58 L 56.34,54.71 L 56.68,54.85 L 57.01,54.98 L 57.32,55.13 L 57.63,55.27 L 57.93,55.43 L 58.22,55.58 L 58.51,55.74 L 58.78,55.91 L 59.05,56.08 L 59.31,56.25 L 59.56,56.43 L 59.80,56.61 L 60.04,56.80 L 60.26,56.99 L 60.48,57.18 L 60.69,57.37 L 60.89,57.57 L 61.09,57.78 L 61.27,57.98 L 61.45,58.19 L 61.62,58.40 L 61.78,58.61 L 61.94,58.83 L 62.08,59.04 L 62.22,59.26 L 62.36,59.48 L 62.48,59.71 L 62.60,59.93 L 62.71,60.16 L 62.81,60.38 L 62.91,60.61 L 63.00,60.84 L 63.08,61.07 L 63.16,61.30 L 63.23,61.54 L 63.30,61.77 L 63.36,62.00 L 63.41,62.24 L 63.46,62.47 L 63.50,62.71 L 63.53,62.95 L 63.56,63.19 L 63.59,63.43 L 63.61,63.67 L 63.62,63.91 L 63.63,64.15 L 63.64,64.39 L 63.63,64.64 L 63.63,64.88 L 63.61,65.13 L 63.60,65.38 L 63.57,65.63 L 63.55,65.87 L 63.51,66.13 L 63.48,66.38 L 63.43,66.63 L 63.38,66.89 L 63.33,67.14 L 63.27,67.40 L 63.21,67.66 L 63.14,67.92 L 63.06,68.18 L 62.98,68.44 L 62.89,68.71 L 62.80,68.97 L 62.70,69.24 L 62.59,69.51 L 62.48,69.78 L 62.36,70.05 L 62.24,70.32 L 62.11,70.59 L 61.97,70.86 L 61.82,71.14 L 61.67,71.41 L 61.51,71.69 L 61.35,71.96 L 61.17,72.24 L 60.99,72.52 L 60.81,72.80 L 60.61,73.07 L 60.41,73.35 L 60.19,73.63 L 59.97,73.91 L 59.75,74.18 L 59.51,74.46 L 59.26,74.74 L 59.01,75.01 L 58.75,75.29 L 58.48,75.56 L 58.20,75.83 L 57.91,76.10 L 57.61,76.37 L 57.30,76.63 L 56.98,76.89 L 56.66,77.15 L 56.32,77.41 L 55.98,77.67 L 55.62,77.92 L 55.26,78.16 L 54.88,78.41 L 54.50,78.64 L 54.10,78.88 L 53.70,79.11 L 53.29,79.33 L 52.86,79.55 L 52.43,79.76 L 51.98,79.97 L 51.53,80.17 L 51.07,80.36 L 50.59,80.55 L 50.11,80.73 L 49.61,80.90 L 49.11,81.07 L 50.92,89.25 L 50.92,89.25 L 54.12,97.00 L 54.99,96.71 L 55.85,96.41 L 56.69,96.08 L 57.52,95.74 L 58.34,95.37 L 59.13,94.99 L 59.92,94.60 L 60.68,94.18 L 61.43,93.75 L 62.17,93.31 L 62.88,92.85 L 63.58,92.38 L 64.26,91.89 L 64.93,91.39 L 65.57,90.88 L 66.20,90.35 L 66.81,89.82 L 67.40,89.27 L 67.97,88.72 L 68.52,88.15 L 69.06,87.57 L 69.57,86.99 L 70.07,86.39 L 70.54,85.79 L 71.00,85.19 L 71.43,84.57 L 71.85,83.95 L 72.24,83.33 L 72.62,82.70 L 72.98,82.06 L 73.32,81.43 L 73.63,80.79 L 73.93,80.14 L 74.21,79.50 L 74.47,78.85 L 74.71,78.20 L 74.93,77.55 L 75.13,76.91 L 75.31,76.26 L 75.47,75.61 L 75.61,74.97 L 75.73,74.32 L 75.84,73.68 L 75.93,73.04 L 76.00,72.41 L 76.05,71.78 L 76.08,71.15 L 76.09,70.53 L 76.09,69.92 L 76.07,69.31 L 76.03,68.71 L 75.98,68.11 L 75.91,67.52 L 75.82,66.94 L 75.72,66.37 L 75.61,65.80 L 75.47,65.25 L 75.33,64.70 L 75.16,64.16 L 74.99,63.63 L 74.80,63.12 L 74.60,62.61 L 74.38,62.12 L 74.15,61.63 L 73.91,61.16 L 73.66,60.70 L 73.39,60.25 L 73.12,59.81 L 72.84,59.39 L 72.54,58.98 L 72.24,58.58 L 71.92,58.19 L 71.60,57.82 L 71.27,57.46 L 70.93,57.12 L 70.59,56.79 L 70.23,56.47 L 69.88,56.17 L 69.51,55.88 L 69.14,55.60 L 68.77,55.34 L 68.39,55.09 L 68.01,54.86 L 67.62,54.64 L 67.24,54.43 L 66.85,54.24 L 66.45,54.06 L 66.06,53.90 L 65.66,53.75 L 65.27,53.61 L 64.87,53.48 L 64.47,53.37 L 64.08,53.27 L 63.68,53.18 L 63.29,53.11 L 62.89,53.04 L 62.50,52.99 L 62.11,52.94 L 61.72,52.91 L 61.33,52.89 L 60.94,52.88 L 60.56,52.88 L 60.18,52.89 L 59.80,52.90 L 59.42,52.93 L 59.04,52.96 L 58.66,53.01 L 58.29,53.06 L 57.92,53.11 L 57.55,53.18 L 57.17,53.25 L 56.80,53.32 L 56.43,53.41 L 56.05,53.49 L 55.67,53.59 L 55.29,53.68 L 54.89,53.79 L 54.48,53.89 L 54.00,54.00 Z" fill="#D3141A"/><circle cx="50.92" cy="89.25" r="8.35" fill="#D3141A"/><path d="M 54.00,54.00 L 53.89,54.48 L 53.78,54.88 L 53.66,55.27 L 53.54,55.64 L 53.42,56.00 L 53.29,56.34 L 53.15,56.68 L 53.02,57.01 L 52.87,57.32 L 52.73,57.63 L 52.57,57.93 L 52.42,58.22 L 52.26,58.51 L 52.09,58.78 L 51.92,59.05 L 51.75,59.31 L 51.57,59.56 L 51.39,59.80 L 51.20,60.04 L 51.01,60.26 L 50.82,60.48 L 50.63,60.69 L 50.43,60.89 L 50.22,61.09 L 50.02,61.27 L 49.81,61.45 L 49.60,61.62 L 49.39,61.78 L 49.17,61.94 L 48.96,62.08 L 48.74,62.22 L 48.52,62.36 L 48.29,62.48 L 48.07,62.60 L 47.84,62.71 L 47.62,62.81 L 47.39,62.91 L 47.16,63.00 L 46.93,63.08 L 46.70,63.16 L 46.46,63.23 L 46.23,63.30 L 46.00,63.36 L 45.76,63.41 L 45.53,63.46 L 45.29,63.50 L 45.05,63.53 L 44.81,63.56 L 44.57,63.59 L 44.33,63.61 L 44.09,63.62 L 43.85,63.63 L 43.61,63.64 L 43.36,63.63 L 43.12,63.63 L 42.87,63.61 L 42.62,63.60 L 42.37,63.57 L 42.13,63.55 L 41.87,63.51 L 41.62,63.48 L 41.37,63.43 L 41.11,63.38 L 40.86,63.33 L 40.60,63.27 L 40.34,63.21 L 40.08,63.14 L 39.82,63.06 L 39.56,62.98 L 39.29,62.89 L 39.03,62.80 L 38.76,62.70 L 38.49,62.59 L 38.22,62.48 L 37.95,62.36 L 37.68,62.24 L 37.41,62.11 L 37.14,61.97 L 36.86,61.82 L 36.59,61.67 L 36.31,61.51 L 36.04,61.35 L 35.76,61.17 L 35.48,60.99 L 35.20,60.81 L 34.93,60.61 L 34.65,60.41 L 34.37,60.19 L 34.09,59.97 L 33.82,59.75 L 33.54,59.51 L 33.26,59.26 L 32.99,59.01 L 32.71,58.75 L 32.44,58.48 L 32.17,58.20 L 31.90,57.91 L 31.63,57.61 L 31.37,57.30 L 31.11,56.98 L 30.85,56.66 L 30.59,56.32 L 30.33,55.98 L 30.08,55.62 L 29.84,55.26 L 29.59,54.88 L 29.36,54.50 L 29.12,54.10 L 28.89,53.70 L 28.67,53.29 L 28.45,52.86 L 28.24,52.43 L 28.03,51.98 L 27.83,51.53 L 27.64,51.07 L 27.45,50.59 L 27.27,50.11 L 27.10,49.61 L 26.93,49.11 L 18.75,50.92 L 18.75,50.92 L 11.00,54.12 L 11.29,54.99 L 11.59,55.85 L 11.92,56.69 L 12.26,57.52 L 12.63,58.34 L 13.01,59.13 L 13.40,59.92 L 13.82,60.68 L 14.25,61.43 L 14.69,62.17 L 15.15,62.88 L 15.62,63.58 L 16.11,64.26 L 16.61,64.93 L 17.12,65.57 L 17.65,66.20 L 18.18,66.81 L 18.73,67.40 L 19.28,67.97 L 19.85,68.52 L 20.43,69.06 L 21.01,69.57 L 21.61,70.07 L 22.21,70.54 L 22.81,71.00 L 23.43,71.43 L 24.05,71.85 L 24.67,72.24 L 25.30,72.62 L 25.94,72.98 L 26.57,73.32 L 27.21,73.63 L 27.86,73.93 L 28.50,74.21 L 29.15,74.47 L 29.80,74.71 L 30.45,74.93 L 31.09,75.13 L 31.74,75.31 L 32.39,75.47 L 33.03,75.61 L 33.68,75.73 L 34.32,75.84 L 34.96,75.93 L 35.59,76.00 L 36.22,76.05 L 36.85,76.08 L 37.47,76.09 L 38.08,76.09 L 38.69,76.07 L 39.29,76.03 L 39.89,75.98 L 40.48,75.91 L 41.06,75.82 L 41.63,75.72 L 42.20,75.61 L 42.75,75.47 L 43.30,75.33 L 43.84,75.16 L 44.37,74.99 L 44.88,74.80 L 45.39,74.60 L 45.88,74.38 L 46.37,74.15 L 46.84,73.91 L 47.30,73.66 L 47.75,73.39 L 48.19,73.12 L 48.61,72.84 L 49.02,72.54 L 49.42,72.24 L 49.81,71.92 L 50.18,71.60 L 50.54,71.27 L 50.88,70.93 L 51.21,70.59 L 51.53,70.23 L 51.83,69.88 L 52.12,69.51 L 52.40,69.14 L 52.66,68.77 L 52.91,68.39 L 53.14,68.01 L 53.36,67.62 L 53.57,67.24 L 53.76,66.85 L 53.94,66.45 L 54.10,66.06 L 54.25,65.66 L 54.39,65.27 L 54.52,64.87 L 54.63,64.47 L 54.73,64.08 L 54.82,63.68 L 54.89,63.29 L 54.96,62.89 L 55.01,62.50 L 55.06,62.11 L 55.09,61.72 L 55.11,61.33 L 55.12,60.94 L 55.12,60.56 L 55.11,60.18 L 55.10,59.80 L 55.07,59.42 L 55.04,59.04 L 54.99,58.66 L 54.94,58.29 L 54.89,57.92 L 54.82,57.55 L 54.75,57.17 L 54.68,56.80 L 54.59,56.43 L 54.51,56.05 L 54.41,55.67 L 54.32,55.29 L 54.21,54.89 L 54.11,54.48 L 54.00,54.00 Z" fill="#D3141A"/><circle cx="18.75" cy="50.92" r="8.35" fill="#D3141A"/><path d="M 54.00,54.00 L 53.52,53.89 L 53.12,53.78 L 52.73,53.66 L 52.36,53.54 L 52.00,53.42 L 51.66,53.29 L 51.32,53.15 L 50.99,53.02 L 50.68,52.87 L 50.37,52.73 L 50.07,52.57 L 49.78,52.42 L 49.49,52.26 L 49.22,52.09 L 48.95,51.92 L 48.69,51.75 L 48.44,51.57 L 48.20,51.39 L 47.96,51.20 L 47.74,51.01 L 47.52,50.82 L 47.31,50.63 L 47.11,50.43 L 46.91,50.22 L 46.73,50.02 L 46.55,49.81 L 46.38,49.60 L 46.22,49.39 L 46.06,49.17 L 45.92,48.96 L 45.78,48.74 L 45.64,48.52 L 45.52,48.29 L 45.40,48.07 L 45.29,47.84 L 45.19,47.62 L 45.09,47.39 L 45.00,47.16 L 44.92,46.93 L 44.84,46.70 L 44.77,46.46 L 44.70,46.23 L 44.64,46.00 L 44.59,45.76 L 44.54,45.53 L 44.50,45.29 L 44.47,45.05 L 44.44,44.81 L 44.41,44.57 L 44.39,44.33 L 44.38,44.09 L 44.37,43.85 L 44.36,43.61 L 44.37,43.36 L 44.37,43.12 L 44.39,42.87 L 44.40,42.62 L 44.43,42.37 L 44.45,42.13 L 44.49,41.87 L 44.52,41.62 L 44.57,41.37 L 44.62,41.11 L 44.67,40.86 L 44.73,40.60 L 44.79,40.34 L 44.86,40.08 L 44.94,39.82 L 45.02,39.56 L 45.11,39.29 L 45.20,39.03 L 45.30,38.76 L 45.41,38.49 L 45.52,38.22 L 45.64,37.95 L 45.76,37.68 L 45.89,37.41 L 46.03,37.14 L 46.18,36.86 L 46.33,36.59 L 46.49,36.31 L 46.65,36.04 L 46.83,35.76 L 47.01,35.48 L 47.19,35.20 L 47.39,34.93 L 47.59,34.65 L 47.81,34.37 L 48.03,34.09 L 48.25,33.82 L 48.49,33.54 L 48.74,33.26 L 48.99,32.99 L 49.25,32.71 L 49.52,32.44 L 49.80,32.17 L 50.09,31.90 L 50.39,31.63 L 50.70,31.37 L 51.02,31.11 L 51.34,30.85 L 51.68,30.59 L 52.02,30.33 L 52.38,30.08 L 52.74,29.84 L 53.12,29.59 L 53.50,29.36 L 53.90,29.12 L 54.30,28.89 L 54.71,28.67 L 55.14,28.45 L 55.57,28.24 L 56.02,28.03 L 56.47,27.83 L 56.93,27.64 L 57.41,27.45 L 57.89,27.27 L 58.39,27.10 L 58.89,26.93 L 57.08,18.75 L 57.08,18.75 L 53.88,11.00 L 53.01,11.29 L 52.15,11.59 L 51.31,11.92 L 50.48,12.26 L 49.66,12.63 L 48.87,13.01 L 48.08,13.40 L 47.32,13.82 L 46.57,14.25 L 45.83,14.69 L 45.12,15.15 L 44.42,15.62 L 43.74,16.11 L 43.07,16.61 L 42.43,17.12 L 41.80,17.65 L 41.19,18.18 L 40.60,18.73 L 40.03,19.28 L 39.48,19.85 L 38.94,20.43 L 38.43,21.01 L 37.93,21.61 L 37.46,22.21 L 37.00,22.81 L 36.57,23.43 L 36.15,24.05 L 35.76,24.67 L 35.38,25.30 L 35.02,25.94 L 34.68,26.57 L 34.37,27.21 L 34.07,27.86 L 33.79,28.50 L 33.53,29.15 L 33.29,29.80 L 33.07,30.45 L 32.87,31.09 L 32.69,31.74 L 32.53,32.39 L 32.39,33.03 L 32.27,33.68 L 32.16,34.32 L 32.07,34.96 L 32.00,35.59 L 31.95,36.22 L 31.92,36.85 L 31.91,37.47 L 31.91,38.08 L 31.93,38.69 L 31.97,39.29 L 32.02,39.89 L 32.09,40.48 L 32.18,41.06 L 32.28,41.63 L 32.39,42.20 L 32.53,42.75 L 32.67,43.30 L 32.84,43.84 L 33.01,44.37 L 33.20,44.88 L 33.40,45.39 L 33.62,45.88 L 33.85,46.37 L 34.09,46.84 L 34.34,47.30 L 34.61,47.75 L 34.88,48.19 L 35.16,48.61 L 35.46,49.02 L 35.76,49.42 L 36.08,49.81 L 36.40,50.18 L 36.73,50.54 L 37.07,50.88 L 37.41,51.21 L 37.77,51.53 L 38.12,51.83 L 38.49,52.12 L 38.86,52.40 L 39.23,52.66 L 39.61,52.91 L 39.99,53.14 L 40.38,53.36 L 40.76,53.57 L 41.15,53.76 L 41.55,53.94 L 41.94,54.10 L 42.34,54.25 L 42.73,54.39 L 43.13,54.52 L 43.53,54.63 L 43.92,54.73 L 44.32,54.82 L 44.71,54.89 L 45.11,54.96 L 45.50,55.01 L 45.89,55.06 L 46.28,55.09 L 46.67,55.11 L 47.06,55.12 L 47.44,55.12 L 47.82,55.11 L 48.20,55.10 L 48.58,55.07 L 48.96,55.04 L 49.34,54.99 L 49.71,54.94 L 50.08,54.89 L 50.45,54.82 L 50.83,54.75 L 51.20,54.68 L 51.57,54.59 L 51.95,54.51 L 52.33,54.41 L 52.71,54.32 L 53.11,54.21 L 53.52,54.11 L 54.00,54.00 Z" fill="#D3141A"/><circle cx="57.08" cy="18.75" r="8.35" fill="#D3141A"/><path d="M 54.00,54.00 L 54.11,53.52 L 54.22,53.12 L 54.34,52.73 L 54.46,52.36 L 54.58,52.00 L 54.71,51.66 L 54.85,51.32 L 54.98,50.99 L 55.13,50.68 L 55.27,50.37 L 55.43,50.07 L 55.58,49.78 L 55.74,49.49 L 55.91,49.22 L 56.08,48.95 L 56.25,48.69 L 56.43,48.44 L 56.61,48.20 L 56.80,47.96 L 56.99,47.74 L 57.18,47.52 L 57.37,47.31 L 57.57,47.11 L 57.78,46.91 L 57.98,46.73 L 58.19,46.55 L 58.40,46.38 L 58.61,46.22 L 58.83,46.06 L 59.04,45.92 L 59.26,45.78 L 59.48,45.64 L 59.71,45.52 L 59.93,45.40 L 60.16,45.29 L 60.38,45.19 L 60.61,45.09 L 60.84,45.00 L 61.07,44.92 L 61.30,44.84 L 61.54,44.77 L 61.77,44.70 L 62.00,44.64 L 62.24,44.59 L 62.47,44.54 L 62.71,44.50 L 62.95,44.47 L 63.19,44.44 L 63.43,44.41 L 63.67,44.39 L 63.91,44.38 L 64.15,44.37 L 64.39,44.36 L 64.64,44.37 L 64.88,44.37 L 65.13,44.39 L 65.38,44.40 L 65.63,44.43 L 65.87,44.45 L 66.13,44.49 L 66.38,44.52 L 66.63,44.57 L 66.89,44.62 L 67.14,44.67 L 67.40,44.73 L 67.66,44.79 L 67.92,44.86 L 68.18,44.94 L 68.44,45.02 L 68.71,45.11 L 68.97,45.20 L 69.24,45.30 L 69.51,45.41 L 69.78,45.52 L 70.05,45.64 L 70.32,45.76 L 70.59,45.89 L 70.86,46.03 L 71.14,46.18 L 71.41,46.33 L 71.69,46.49 L 71.96,46.65 L 72.24,46.83 L 72.52,47.01 L 72.80,47.19 L 73.07,47.39 L 73.35,47.59 L 73.63,47.81 L 73.91,48.03 L 74.18,48.25 L 74.46,48.49 L 74.74,48.74 L 75.01,48.99 L 75.29,49.25 L 75.56,49.52 L 75.83,49.80 L 76.10,50.09 L 76.37,50.39 L 76.63,50.70 L 76.89,51.02 L 77.15,51.34 L 77.41,51.68 L 77.67,52.02 L 77.92,52.38 L 78.16,52.74 L 78.41,53.12 L 78.64,53.50 L 78.88,53.90 L 79.11,54.30 L 79.33,54.71 L 79.55,55.14 L 79.76,55.57 L 79.97,56.02 L 80.17,56.47 L 80.36,56.93 L 80.55,57.41 L 80.73,57.89 L 80.90,58.39 L 81.07,58.89 L 89.25,57.08 L 89.25,57.08 L 97.00,53.88 L 96.71,53.01 L 96.41,52.15 L 96.08,51.31 L 95.74,50.48 L 95.37,49.66 L 94.99,48.87 L 94.60,48.08 L 94.18,47.32 L 93.75,46.57 L 93.31,45.83 L 92.85,45.12 L 92.38,44.42 L 91.89,43.74 L 91.39,43.07 L 90.88,42.43 L 90.35,41.80 L 89.82,41.19 L 89.27,40.60 L 88.72,40.03 L 88.15,39.48 L 87.57,38.94 L 86.99,38.43 L 86.39,37.93 L 85.79,37.46 L 85.19,37.00 L 84.57,36.57 L 83.95,36.15 L 83.33,35.76 L 82.70,35.38 L 82.06,35.02 L 81.43,34.68 L 80.79,34.37 L 80.14,34.07 L 79.50,33.79 L 78.85,33.53 L 78.20,33.29 L 77.55,33.07 L 76.91,32.87 L 76.26,32.69 L 75.61,32.53 L 74.97,32.39 L 74.32,32.27 L 73.68,32.16 L 73.04,32.07 L 72.41,32.00 L 71.78,31.95 L 71.15,31.92 L 70.53,31.91 L 69.92,31.91 L 69.31,31.93 L 68.71,31.97 L 68.11,32.02 L 67.52,32.09 L 66.94,32.18 L 66.37,32.28 L 65.80,32.39 L 65.25,32.53 L 64.70,32.67 L 64.16,32.84 L 63.63,33.01 L 63.12,33.20 L 62.61,33.40 L 62.12,33.62 L 61.63,33.85 L 61.16,34.09 L 60.70,34.34 L 60.25,34.61 L 59.81,34.88 L 59.39,35.16 L 58.98,35.46 L 58.58,35.76 L 58.19,36.08 L 57.82,36.40 L 57.46,36.73 L 57.12,37.07 L 56.79,37.41 L 56.47,37.77 L 56.17,38.12 L 55.88,38.49 L 55.60,38.86 L 55.34,39.23 L 55.09,39.61 L 54.86,39.99 L 54.64,40.38 L 54.43,40.76 L 54.24,41.15 L 54.06,41.55 L 53.90,41.94 L 53.75,42.34 L 53.61,42.73 L 53.48,43.13 L 53.37,43.53 L 53.27,43.92 L 53.18,44.32 L 53.11,44.71 L 53.04,45.11 L 52.99,45.50 L 52.94,45.89 L 52.91,46.28 L 52.89,46.67 L 52.88,47.06 L 52.88,47.44 L 52.89,47.82 L 52.90,48.20 L 52.93,48.58 L 52.96,48.96 L 53.01,49.34 L 53.06,49.71 L 53.11,50.08 L 53.18,50.45 L 53.25,50.83 L 53.32,51.20 L 53.41,51.57 L 53.49,51.95 L 53.59,52.33 L 53.68,52.71 L 53.79,53.11 L 53.89,53.52 L 54.00,54.00 Z" fill="#D3141A"/><circle cx="89.25" cy="57.08" r="8.35" fill="#D3141A"/><animateTransform attributeName="transform" type="rotate" from="0 54.00 54.00" to="-360 54.00 54.00" dur="1.44s" repeatCount="indefinite"/></g>
  </g>
  <path d="M1004 815Q957 837 910.5 847.5Q864 858 817 858Q679 858 604.5 769.5Q530 681 530 516V0H172V1120H530V936Q599 1046 688.5 1096.5Q778 1147 903 1147Q921 1147 942.0 1145.5Q963 1144 1003 1139Z" fill="#FFFFFF" transform="translate(124.00,79.23) scale(0.021484,-0.021484)"/><path d="M25 1120H383L684 360L940 1120H1298L827 -106Q756 -293 661.5 -367.5Q567 -442 412 -442H205V-207H317Q408 -207 449.5 -178.0Q491 -149 514 -74L524 -43Z" fill="#FFFFFF" transform="translate(145.70,79.23) scale(0.021484,-0.021484)"/><path d="M674 504Q562 504 505.5 466.0Q449 428 449 354Q449 286 494.5 247.5Q540 209 621 209Q722 209 791.0 281.5Q860 354 860 463V504ZM1221 639V0H860V166Q788 64 698.0 17.5Q608 -29 479 -29Q305 -29 196.5 72.5Q88 174 88 336Q88 533 223.5 625.0Q359 717 649 717H860V745Q860 830 793.0 869.5Q726 909 584 909Q469 909 370.0 886.0Q271 863 186 817V1090Q301 1118 417.0 1132.5Q533 1147 649 1147Q952 1147 1086.5 1027.5Q1221 908 1221 639Z" fill="#FFFFFF" transform="translate(174.38,79.23) scale(0.021484,-0.021484)"/><path d="M1298 682V0H938V111V522Q938 667 931.5 722.0Q925 777 909 803Q888 838 852.0 857.5Q816 877 770 877Q658 877 594.0 790.5Q530 704 530 551V0H172V1120H530V956Q611 1054 702.0 1100.5Q793 1147 903 1147Q1097 1147 1197.5 1028.0Q1298 909 1298 682Z" fill="#FFFFFF" transform="translate(204.07,79.23) scale(0.021484,-0.021484)"/><path d="M209 387H569V0H209Z" fill="#FFFFFF" transform="translate(235.40,79.23) scale(0.021484,-0.021484)"/><path d="M1290 563V461H453Q466 335 544.0 272.0Q622 209 762 209Q875 209 993.5 242.5Q1112 276 1237 344V68Q1110 20 983.0 -4.5Q856 -29 729 -29Q425 -29 256.5 125.5Q88 280 88 559Q88 833 253.5 990.0Q419 1147 709 1147Q973 1147 1131.5 988.0Q1290 829 1290 563ZM922 682Q922 784 862.5 846.5Q803 909 707 909Q603 909 538.0 850.5Q473 792 457 682Z" fill="#D3141A" transform="translate(252.11,79.23) scale(0.021484,-0.021484)"/><path d="M160 436V1120H520V1008Q520 917 519.0 779.5Q518 642 518 596Q518 461 525.0 401.5Q532 342 549 315Q571 280 606.5 261.0Q642 242 688 242Q800 242 864.0 328.0Q928 414 928 567V1120H1286V0H928V162Q847 64 756.5 17.5Q666 -29 557 -29Q363 -29 261.5 90.0Q160 209 160 436Z" fill="#00823D" transform="translate(281.95,79.23) scale(0.021484,-0.021484)"/><path d="M1047 1085V813Q932 861 825.0 885.0Q718 909 623 909Q521 909 471.5 883.5Q422 858 422 805Q422 762 459.5 739.0Q497 716 594 705L657 696Q932 661 1027.0 581.0Q1122 501 1122 330Q1122 151 990.0 61.0Q858 -29 596 -29Q485 -29 366.5 -11.5Q248 6 123 41V313Q230 261 342.5 235.0Q455 209 571 209Q676 209 729.0 238.0Q782 267 782 324Q782 372 745.5 395.5Q709 419 600 432L537 440Q298 470 202.0 551.0Q106 632 106 797Q106 975 228.0 1061.0Q350 1147 602 1147Q701 1147 810.0 1132.0Q919 1117 1047 1085Z" fill="#FFFFFF" transform="translate(313.28,79.23) scale(0.021484,-0.021484)"/>
</svg>